<svg width="300" height="300" viewBox="0 0 300 300" fill="none" xmlns="http://www.w3.org/2000/svg">
<path d="M29.4769 237.051L25 219.641V78.3692L29.4769 62.9487L53.3538 53L108.569 54.4923L134.933 81.3538H188.159L205.072 83.841L215.518 96.2769L218.005 113.687V123.636L92.1538 137.067V166.415L81.7077 246.005H51.3641L29.4769 237.051Z" fill="#363636"/>
<path d="M52.7143 247H246.714C254.065 247 261.114 244.08 266.311 238.883C271.509 233.685 274.429 226.636 274.429 219.286V150C274.429 142.65 271.509 135.6 266.311 130.403C261.114 125.206 254.065 122.286 246.714 122.286H108.143C100.793 122.286 93.7433 125.206 88.5459 130.403C83.3485 135.6 80.4286 142.65 80.4286 150V219.286C80.4286 226.636 77.5087 233.685 72.3112 238.883C67.1138 244.08 60.0646 247 52.7143 247Z" fill="#FFC710"/>
<path d="M52.7143 247C45.364 247 38.3148 244.08 33.1173 238.883C27.9199 233.685 25 226.636 25 219.286V80.7143C25 73.364 27.9199 66.3148 33.1173 61.1173C38.3148 55.9199 45.364 53 52.7143 53H108.143L135.857 80.7143H191.286C198.636 80.7143 205.685 83.6342 210.883 88.8316C216.08 94.029 219 101.078 219 108.429V122.286M52.7143 247H246.714C254.065 247 261.114 244.08 266.311 238.883C271.509 233.685 274.429 226.636 274.429 219.286V150C274.429 142.65 271.509 135.6 266.311 130.403C261.114 125.206 254.065 122.286 246.714 122.286H108.143C100.793 122.286 93.7433 125.206 88.5459 130.403C83.3485 135.6 80.4286 142.65 80.4286 150V219.286C80.4286 226.636 77.5087 233.685 72.3112 238.883C67.1138 244.08 60.0646 247 52.7143 247Z" stroke="#FFC710" stroke-width="7.63004" stroke-linecap="round" stroke-linejoin="round"/>
<path d="M107.301 199.497V165.705H113.477L114.021 170.089C115.429 168.361 117.093 167.049 119.013 166.153C120.933 165.257 122.906 164.809 124.933 164.809C128.09 164.809 130.448 165.695 132.005 167.465C133.584 169.215 134.373 171.679 134.373 174.857V199.497H127.205V178.409C127.205 176.447 127.088 174.868 126.853 173.673C126.618 172.479 126.149 171.615 125.445 171.081C124.762 170.548 123.738 170.281 122.373 170.281C121.285 170.281 120.25 170.516 119.269 170.985C118.288 171.455 117.392 172.073 116.581 172.841C115.77 173.588 115.066 174.388 114.469 175.241V199.497H107.301ZM151.628 184.905C151.777 187.209 152.268 189.097 153.1 190.569C153.932 192.02 155.02 193.087 156.364 193.769C157.729 194.452 159.223 194.793 160.844 194.793C162.508 194.793 164.044 194.537 165.452 194.025C166.86 193.513 168.279 192.788 169.708 191.849L172.812 196.137C171.233 197.417 169.388 198.441 167.276 199.209C165.164 199.977 162.903 200.361 160.492 200.361C156.993 200.361 154.028 199.615 151.596 198.121C149.185 196.628 147.351 194.548 146.092 191.881C144.833 189.215 144.204 186.132 144.204 182.633C144.204 179.241 144.823 176.212 146.06 173.545C147.297 170.857 149.068 168.735 151.372 167.177C153.676 165.599 156.428 164.809 159.628 164.809C162.636 164.809 165.217 165.492 167.372 166.857C169.548 168.223 171.223 170.164 172.396 172.681C173.591 175.177 174.188 178.185 174.188 181.705C174.188 182.281 174.167 182.857 174.124 183.433C174.103 183.988 174.071 184.479 174.028 184.905H151.628ZM159.692 170.121C157.452 170.121 155.596 170.921 154.124 172.521C152.673 174.121 151.831 176.617 151.596 180.009H167.244C167.18 176.831 166.497 174.388 165.196 172.681C163.916 170.975 162.081 170.121 159.692 170.121ZM184.371 199.497V194.377H189.331V170.793H184.371V165.705H194.803L196.115 173.545C197.374 170.708 198.931 168.553 200.787 167.081C202.664 165.588 205.075 164.841 208.019 164.841C209.022 164.841 209.918 164.927 210.707 165.097C211.518 165.247 212.318 165.449 213.107 165.705L210.963 171.849C210.28 171.657 209.64 171.519 209.043 171.433C208.446 171.327 207.784 171.273 207.059 171.273C204.606 171.273 202.483 172.191 200.691 174.025C198.92 175.86 197.523 178.463 196.499 181.833V194.377H203.315V199.497H184.371ZM206.771 178.153V169.833L207.667 165.705H213.107L211.891 178.153H206.771ZM229.594 165.705V189.321C229.594 191.327 229.989 192.756 230.778 193.609C231.589 194.463 232.805 194.889 234.426 194.889C235.962 194.889 237.445 194.431 238.874 193.513C240.303 192.596 241.434 191.476 242.266 190.153V165.705H249.434V199.497H243.258L242.81 195.177C241.551 196.863 239.962 198.153 238.042 199.049C236.122 199.924 234.159 200.361 232.154 200.361C228.89 200.361 226.447 199.465 224.826 197.673C223.226 195.86 222.426 193.375 222.426 190.217V165.705H229.594Z" fill="white"/>
</svg>
